<?xml version="1.0" standalone="no"?>
<!DOCTYPE svg PUBLIC "-//W3C//DTD SVG 1.1//EN" "http://www.w3.org/Graphics/SVG/1.1/DTD/svg11.dtd" >
<svg xmlns="http://www.w3.org/2000/svg">
<metadata>Generated by IcoMoon</metadata>
<defs>
<font id="icons" horiz-adv-x="1024">
<font-face units-per-em="1024" ascent="960" descent="-64" />
<missing-glyph horiz-adv-x="1024" />
<glyph unicode="&#x20;" horiz-adv-x="512" d="" />
<glyph unicode="&#xe900;" glyph-name="arrow" d="M1020.188 417.49c2.353 2.347 3.808 5.592 3.808 9.177s-1.456 6.83-3.808 9.177l-82.488 82.488c-2.346 2.343-5.586 3.792-9.164 3.792-7.163 0-12.969-5.806-12.969-12.969 0-3.585 1.454-6.829 3.805-9.177l73.311-73.311-73.311-73.311c-2.351-2.347-3.805-5.592-3.805-9.177 0-7.163 5.806-12.969 12.969-12.969 3.578 0 6.818 1.449 9.164 3.792l82.488 82.488zM0.003 413.705h1011.008v25.923h-1011.008v-25.923z" />
<glyph unicode="&#xe901;" glyph-name="attachment" d="M893.323 864.037c-46.192 46.101-109.956 74.609-180.379 74.609s-134.187-28.508-180.383-74.613l-379.825-379.761c-5.424-5.432-8.779-12.932-8.779-21.215 0-16.583 13.443-30.026 30.026-30.026 8.3 0 15.813 3.367 21.247 8.81v0l379.765 379.701c73.726 73.726 202.17 73.726 275.832 0 35.244-35.319 57.037-84.073 57.037-137.916s-21.793-102.596-57.040-137.919l0.003 0.003-530.289-536.304c-45.375-45.375-124.412-45.375-169.787 0-21.691 21.73-35.104 51.73-35.104 84.862s13.414 63.131 35.106 84.864l-0.002-0.002 509.169 515.185c8.255 7.886 19.464 12.739 31.807 12.739s23.552-4.853 31.825-12.756l-0.018 0.017c8.146-8.162 13.183-19.428 13.183-31.871s-5.037-23.709-13.183-31.872l0.001 0.001-487.858-493.81c-10.112-10.112-10.112-32.319 0-42.431 11.712-11.712 30.719-11.712 42.431 0l487.858 493.874c40.959 40.959 40.959 107.581 0 148.54-39.679 39.679-108.861 39.679-148.476 0l-509.169-515.121c-32.285-32.71-52.224-77.673-52.224-127.292s19.94-94.582 52.244-127.312l-0.019 0.020c32.308-32.345 76.961-52.353 126.287-52.353 0.376 0 0.752 0.001 1.127 0.003h-0.058c48.063 0 93.309 18.303 127.292 52.35l530.353 536.304c46.082 46.189 74.577 109.94 74.577 180.347s-28.495 134.158-74.582 180.352l0.005-0.005z" />
<glyph unicode="&#xe902;" glyph-name="cart" d="M737.14 221.912c45.233 0 81.902-36.669 81.902-81.902s-36.669-81.902-81.902-81.902v0c-45.233 0-81.902 36.669-81.902 81.902s36.669 81.902 81.902 81.902v0zM491.434 221.912c45.233 0 81.902-36.669 81.902-81.902s-36.669-81.902-81.902-81.902v0c-45.233 0-81.902 36.669-81.902 81.902s36.669 81.902 81.902 81.902v0zM189.706 795.226c16.641-0.004 30.963-9.932 37.366-24.189l0.104-0.259 187.556-426.014h392.311l138.087 325.397c6.27 15.074 20.878 25.479 37.916 25.479 22.617 0 40.951-18.334 40.951-40.951 0-5.975-1.28-11.651-3.58-16.769l0.104 0.259-148.694-350.377c-6.396-14.778-20.849-24.932-37.674-24.939h-446.204c-0.010 0-0.022 0-0.033 0-16.644 0-30.97 9.93-37.374 24.189l-0.104 0.259-187.433 426.014h-122.034c-22.617 0-40.951 18.334-40.951 40.951s18.334 40.951 40.951 40.951v0h148.734z" />
<glyph unicode="&#xe903;" glyph-name="check" d="M942.794 792.608l81.19-75.422-610.034-656.453-81.19 75.534 4.104 4.492-336.85 362.416 81.19 75.478 331.36-356.482z" />
<glyph unicode="&#xe904;" glyph-name="chevron-down" d="M512 335.998l-440.552 330.176-71.441-95.255 511.993-383.756 511.993 383.756-71.441 95.255z" />
<glyph unicode="&#xe905;" glyph-name="chevron-left" d="M421.331 426.667l330.176-440.552-95.255-71.441-383.756 511.993 383.756 511.993 95.255-71.441z" />
<glyph unicode="&#xe906;" glyph-name="chevron-right" d="M602.669 426.667l-330.176-440.552 95.255-71.441 383.756 511.993-383.756 511.993-95.255-71.441z" />
<glyph unicode="&#xe907;" glyph-name="chevron-up" d="M512 517.336l-440.552-330.176-71.441 95.255 511.993 383.756 511.993-383.756-71.441-95.255z" />
<glyph unicode="&#xe908;" glyph-name="close" d="M914.549 937.146l63.234-60.265-405.52-425.957 451.722-474.562-63.234-60.178-448.753 471.418-448.753-471.418-63.234 60.178 451.678 474.562-405.476 426 63.234 60.178 402.549-422.856z" />
<glyph unicode="&#xe909;" glyph-name="facebook" d="M592.787-85.309v466.841h159.501l23.654 181.947h-183.197v116.148c0 52.473 14.868 88.329 91.953 88.329h97.991v163.415c-42.48 4.641-91.746 7.288-141.631 7.288-0.339 0-0.677 0-1.016 0h0.054c-141.26 0-237.918-84.997-237.918-240.375v-134.139h-160.874v-181.989h160.167v-466.841h191.317v-0.624z" />
<glyph unicode="&#xe90a;" glyph-name="instagram" d="M463.803 930.202h86.326c104.491-0.123 124.047-0.982 172.979-3.068 54.373-2.332 92.176-10.841 124.456-23.238 35.366-13.401 65.564-33.158 90.587-58.103l-0.006 0.006c25.288-24.492 45.359-54.206 58.49-87.422l0.587-1.686c12.601-31.748 21.274-68.938 23.648-122.41 2.128-48.113 2.987-67.342 3.109-170.115v-75.034c-0.123-102.773-0.982-122.002-3.109-170.115-2.373-53.473-11.046-90.662-23.648-122.41-13.718-34.902-33.789-64.617-59.012-89.044l-0.066-0.064c-25.017-24.938-55.215-44.694-88.838-57.512l-1.743-0.583c-32.321-12.397-70.083-20.907-124.456-23.238-48.931-2.087-68.488-2.946-172.979-3.068h-76.261c-104.491 0.123-124.047 0.982-172.979 3.068-54.373 2.332-92.176 10.841-124.456 23.238-35.365 13.402-65.563 33.159-90.587 58.103l0.007-0.007c-25.288 24.492-45.359 54.206-58.49 87.422l-0.587 1.686c-12.601 31.748-21.274 68.938-23.648 122.41-2.128 48.113-2.987 66.729-3.109 169.951v75.197c0.123 102.773 0.982 122.002 3.109 170.115 2.373 53.473 11.046 90.662 23.648 122.41 13.721 34.901 33.791 64.615 59.012 89.044l0.066 0.064c25.017 24.937 55.215 44.693 88.838 57.512l1.743 0.583c32.321 12.397 70.083 20.907 124.456 23.238 47.336 2.046 66.606 2.864 162.914 3.109h86.326zM537.854 839.58h-51.713c-113.574-0.082-131.33-0.9-181.325-3.068-50.405-1.554-77.203-10.105-95.327-17.060-23.161-8.499-42.904-21.451-59.052-37.94l-0.027-0.027c-16.555-15.936-29.669-35.318-38.203-57.006l-0.378-1.091c-7.078-17.838-14.974-44.963-17.347-93.771-2.128-48.113-2.946-65.46-3.109-166.719v-74.052c0.164-101.259 0.982-118.647 3.109-166.719 1.595-49.587 10.228-75.934 17.347-93.771 9.451-24.016 20.456-40.258 38.58-58.096 18.124-17.797 35.471-28.639 59.078-37.967 18.124-6.955 45.699-14.729 95.327-17.019 48.931-2.087 66.565-2.946 169.542-3.109h75.279c102.977 0.164 120.61 1.023 169.542 3.109 50.405 1.554 77.203 10.064 95.327 17.019 23.162 8.497 42.905 21.45 59.052 37.94l0.027 0.027c18.083 17.838 29.13 34.858 38.58 58.096 7.078 17.838 14.974 44.963 17.347 93.771 2.168 49.913 3.027 66.688 3.109 178.339v50.813c-0.082 111.651-0.941 128.465-3.109 178.38-1.595 49.546-10.228 75.893-17.347 93.69-8.698 22.872-21.848 42.307-38.508 58.070l-0.072 0.068c-16.295 16.344-36.014 29.264-57.992 37.592l-1.127 0.375c-18.083 6.955-45.658 14.729-95.327 17.060-50.731 2.168-67.793 2.987-181.284 3.068zM511.998 684.644c144.953 0 263.069-116.192 263.069-258.772 0-142.54-118.115-258.772-263.069-258.772s-263.069 116.192-263.069 258.772c0 142.54 117.337 258.772 263.069 258.772zM511.998 593.982c-94.509 0-170.933-75.157-170.933-168.11s76.425-168.151 170.933-168.151c94.509 0 170.933 75.197 170.933 168.151s-76.384 168.151-170.933 168.151zM785.294 755.914c33.958 0 61.492-27.044 61.492-60.428-0.3-33.438-27.476-60.43-60.957-60.43-0.174 0-0.347 0.001-0.519 0.002h0.027c-0.147-0.001-0.32-0.002-0.493-0.002-33.481 0-60.658 26.992-60.957 60.401v0.028c0.3 33.438 27.476 60.43 60.957 60.43 0.174 0 0.347-0.001 0.519-0.002h-0.027z" />
<glyph unicode="&#xe90b;" glyph-name="minus" d="M0 490.667h1024v-128h-1024z" />
<glyph unicode="&#xe90c;" glyph-name="next" d="M202.845 857.971l76.184 80.679 542.113-511.983-542.113-511.983-76.184 80.679 456.662 431.304z" />
<glyph unicode="&#xe90d;" glyph-name="pdf" d="M163.853 631.464c31.334 0 59.084-5.837 83.148-17.408 24.269-11.469 43.007-27.853 56.114-49.254 13.312-21.197 19.968-45.26 19.968-72.293 0-39.935-14.336-71.986-43.11-95.948-28.569-23.859-67.89-35.737-117.758-35.737h-63.385v-138.955h-98.815v409.594h163.838zM518.663 631.464c36.249 0 68.812-8.192 97.791-24.781 28.979-16.384 51.506-39.423 67.583-69.426 16.384-29.901 24.678-63.282 24.883-100.453v-18.841c0-37.478-7.987-71.167-23.961-100.965-15.769-29.696-38.194-52.94-67.071-69.836-28.774-16.691-60.927-25.088-96.46-25.293h-166.91v409.594h164.145zM1024 631.464v-76.287h-175.613v-94.207h159.537v-75.98h-159.537v-163.121h-99.020v409.594h274.633zM518.663 555.177h-65.228v-257.327h66.354c28.365 0 50.175 10.035 65.33 30.105 15.36 20.275 22.835 50.175 22.835 90.008v17.715c0 39.526-7.577 69.426-22.835 89.496-15.155 20.070-37.375 30.003-66.559 30.003zM164.979 555.177h-66.047v-118.065h64.921c19.149 0 33.792 4.71 43.622 14.336 10.24 9.523 15.36 23.040 15.36 40.447 0.051 0.975 0.081 2.117 0.081 3.266 0 16.293-5.918 31.204-15.722 42.701l0.076-0.092c-10.062 10.75-24.339 17.448-40.18 17.448-0.742 0-1.481-0.014-2.216-0.044l0.105 0.003z" />
<glyph unicode="&#xe90e;" glyph-name="pin" d="M511.986-85.325s362.657 456.307 362.657 658.285c0 201.935-162.384 365.685-362.657 365.685s-362.657-163.75-362.657-365.685c0-201.978 362.657-658.285 362.657-658.285zM511.986 426.66v0c-82.473 0-149.329 66.857-149.329 149.329s66.857 149.329 149.329 149.329v0c82.473 0 149.329-66.857 149.329-149.329s-66.857-149.329-149.329-149.329z" />
<glyph unicode="&#xe90f;" glyph-name="play" d="M173.304 395.142c-9.608 7.261-15.753 18.666-15.753 31.507s6.145 24.245 15.655 31.435l0.098 0.071 630.131 472.599c6.499 4.918 14.719 7.877 23.63 7.877 21.751 0 39.383-17.633 39.383-39.383v-945.197c0-21.751-17.633-39.383-39.383-39.383-8.91 0-17.13 2.959-23.728 7.948l0.098-0.071-630.131 472.599z" />
<glyph unicode="&#xe910;" glyph-name="plus" d="M448 938.667h128v-448h448v-128h-448v-448h-128v448h-448v128h448v448z" />
<glyph unicode="&#xe911;" glyph-name="prev" d="M821.181 857.971l-76.239 80.679-542.113-511.983 542.113-511.983 76.239 80.679-456.662 431.304z" />
<glyph unicode="&#xe912;" glyph-name="sale" d="M998.731 899.502c33.644-33.205 33.644-87.034 0-120.238l-851.833-841.594c-15.651-15.371-37.124-24.859-60.814-24.859s-45.163 9.488-60.827 24.872l0.013-0.013c-15.555 15.308-25.193 36.587-25.193 60.119s9.638 44.812 25.182 60.108l0.011 0.011 851.687 841.594c15.655 15.393 37.143 24.895 60.851 24.895s45.196-9.503 60.863-24.907l-0.012 0.012zM711.812 221.224c33.257 32.733 78.921 52.943 129.308 52.943s96.051-20.211 129.332-52.967l-0.024 0.024c33.087-32.521 53.59-77.751 53.59-127.772s-20.504-95.251-53.564-127.747l-0.025-0.025c-33.264-32.716-78.927-52.914-129.308-52.914s-96.043 20.199-129.333 52.938l0.025-0.025c-33.069 32.53-53.559 77.757-53.559 127.772s20.491 95.242 53.534 127.748l0.024 0.024zM312.188 871.49c33.046-32.526 53.521-77.739 53.521-127.735s-20.476-95.209-53.498-127.712l-0.024-0.023c-33.257-32.733-78.921-52.943-129.308-52.943s-96.051 20.211-129.332 52.967l0.024-0.024c-33.046 32.526-53.521 77.739-53.521 127.735s20.476 95.209 53.498 127.712l0.024 0.023c33.264 32.716 78.927 52.914 129.308 52.914s96.043-20.199 129.333-52.938l-0.025 0.025z" />
<glyph unicode="&#xe913;" glyph-name="search" d="M484.461 938.652c258.638-0.008 468.302-209.677 468.302-468.316 0-117.968-43.618-225.748-115.607-308.093l0.469 0.548 154.104-154.104c9.931-9.964 16.071-23.711 16.071-38.893 0-30.428-24.667-55.096-55.096-55.096-12.75 0-24.489 4.331-33.825 11.602l0.124-0.092-5.179 4.573-157.905 157.905c-75.421-54.194-169.623-86.666-271.409-86.666-258.644 0-468.316 209.672-468.316 468.316 0 258.627 209.644 468.288 468.264 468.316h0.003zM484.461 828.46c-197.767-0.026-358.079-160.353-358.079-358.124 0-197.786 160.338-358.124 358.124-358.124 83.102 0 159.594 28.305 220.358 75.801l-0.79-0.595c6.42 16.224 19.892 28.445 36.529 33.022l0.385 0.090c62.787 64.448 101.511 152.604 101.511 249.805 0 197.757-160.289 358.075-358.033 358.124h-0.004z" />
<glyph unicode="&#xe914;" glyph-name="trash" d="M622.691 938.656c0.383 0.005 0.835 0.008 1.288 0.008 28.547 0 54.511-11.058 73.842-29.126l-0.062 0.057c17.523-16.586 28.267-38.363 30.575-61.511l0.505-10.095v-22.282h120.497c51.415 0 94.97-36.2 101.676-84.875 5.985-43.772-19.47-85.091-60.862-102.109l-9.158-3.317v-577.033c0-36.2-13.918-70.38-38.652-95.042-21.85-21.922-51.199-35.335-82.496-38.147l-11.827-0.505h-472.112c-0.080 0-0.175 0-0.269 0-36.629 0-69.809 14.763-93.918 38.662l0.010-0.009c-21.419 21.578-35.504 50.462-38.187 82.588l-0.033 0.484-0.505 11.971v577.033l-9.086 3.317c-41.392 16.946-66.919 58.41-60.934 102.109 6.273 45.43 44.637 80.043 91.509 84.37l10.095 0.505h120.57v22.354c-0.144 26.825 11.105 52.641 31.080 71.534 17.451 16.442 40.31 26.537 64.54 28.628l10.456 0.433h221.454zM816.669 621.583h-609.338v-573.211c0-40.599 30.070-71.967 68.65-71.967h472.040c38.58 0 68.65 31.368 68.65 71.967v573.283zM659.25 572.908c15.648 0 28.844-10.816 31.584-25.239l0.577-5.624v-446.872c0-17.091-14.495-30.863-32.161-30.863-15.721 0-28.916 10.816-31.729 25.239l-0.505 5.624v446.872c0 17.091 14.495 30.863 32.233 30.863zM364.822 572.908c15.648 0 28.844-10.816 31.584-25.239l0.577-5.624v-446.872c0-17.091-14.495-30.863-32.233-30.863-15.648 0-28.844 10.816-31.584 25.239l-0.577 5.624v446.872c0 17.091 14.495 30.863 32.233 30.863zM512 572.908c17.667 0 32.161-13.702 32.161-30.863v-446.872c0-17.091-14.423-30.863-32.161-30.863-0.195-0.005-0.425-0.007-0.656-0.007-17.178 0-31.146 13.745-31.505 30.836v446.906c0 17.091 14.423 30.863 32.161 30.863zM849.336 753.979h-674.671c-20.912 0-37.714-15.865-37.714-35.335s16.802-35.335 37.714-35.335h674.671c20.912 0 37.714 15.865 37.714 35.335s-16.802 35.335-37.714 35.335zM622.763 876.929h-221.67c-0.294 0.008-0.641 0.011-0.989 0.011-11.102 0-21.206-4.283-28.747-11.285l0.027 0.025c-7.328-6.803-11.9-16.49-11.9-27.244 0-0.106 0-0.213 0.001-0.319v0.016-22.427h305.030v22.427c0.001 0.080 0.001 0.174 0.001 0.268 0 10.778-4.6 20.483-11.946 27.256l-0.026 0.024c-7.525 6.98-17.638 11.261-28.751 11.261-0.363 0-0.724-0.005-1.085-0.014l0.053 0.001z" />
<glyph unicode="&#xe915;" glyph-name="trash-2" d="M642.997 938.645c36.862 0 66.836-29.974 66.836-66.836v-86.85l279.4-0.047v-80.195h-84.941l-66.324-753.445c-1.69-18.831-16.168-33.82-34.609-36.281l-0.205-0.022-5.12-0.279h-573.415c-0.001 0-0.003 0-0.004 0-19.107 0-35.094 13.356-39.134 31.242l-0.051 0.268-0.791 5.073-66.278 753.445h-83.592v80.195l279.354 0.047v86.85c0 34.674 26.576 63.299 60.413 66.557l6.47 0.279zM823.772 704.718h-624.892l62.414-709.787h500.016l62.461 709.787zM626.987 588.545l80.148-2.932-17.36-474.556-80.148 2.932 17.36 474.556zM397.016 588.545l17.36-474.556-80.148-2.932-17.36 474.556 80.148 2.932zM552.098 587.056v-474.51h-80.195v474.51h80.195zM629.64 858.404h-235.277v-73.446h235.231v73.492z" />
<glyph unicode="&#xe916;" glyph-name="vkontakte" d="M500.481 151.725h61.191s18.502 1.836 28.071 11.546c8.898 9.075 8.262 25.458 8.262 25.458s-1.271 78.246 36.969 89.792c37.64 11.511 86.085-75.845 137.071-109.177 38.876-25.493 68.218-20.020 68.218-20.020l137.001 1.801s71.431 4.237 37.64 57.625c-2.542 4.237-19.773 39.441-101.974 112.214-86.085 75.809-74.609 63.698 29.307 194.697 63.098 80.082 87.956 128.597 80.294 149.818-7.627 20.020-53.494 14.618-53.494 14.618l-154.267-1.236s-11.476 1.236-19.773-3.637c-8.262-4.837-13.347-15.783-13.347-15.783s-24.222-61.862-56.742-114.615c-68.854-111.013-96.254-117.086-107.094-109.813-26.129 15.783-19.773 64.299-19.773 98.867 0 107.376 17.231 152.255-33.12 163.801-16.595 3.637-29.307 6.673-72.031 6.673-54.836 0.6-101.338 0-128.138-12.747-17.831-7.874-31.214-26.694-22.951-27.294 10.204-1.201 33.156-6.073 45.267-21.857 15.925-20.621 15.289-66.099 15.289-66.099s8.933-126.761-21.009-142.544c-21.044-10.946-49.080 11.546-110.307 112.214-31.214 51.552-54.8 108.577-54.8 108.577s-4.484 10.946-12.747 16.384c-9.639 6.638-23.622 9.075-23.622 9.075l-146.605-0.671s-22.316-0.565-29.978-9.675c-6.991-7.874-0.636-24.858-0.636-24.858s114.756-255.358 244.765-383.955c117.934-117.051 253.063-109.177 253.063-109.177z" />
<glyph unicode="&#xe917;" glyph-name="youtube" d="M511.978 504.229c107.442 0 215.639 0 322.412-11.808 45.054-4.439 82.613-37.685 93.165-82.78 15.032-63.519 15.032-133.738 15.032-200.189 0-66.534 0-135.957-15.074-200.231-10.831-44.103-47.472-77.242-92.641-82.728l-0.523-0.052c-93.374-10.342-187.879-11.599-282.048-11.766h-80.687c-94.211 0.168-188.716 1.424-282.090 11.766-45.893 5.026-82.763 38.413-92.939 82.057l-0.142 0.724c-13.399 57.113-14.865 118.915-15.032 178.122v44.384c0.168 59.583 1.674 120.8 15.032 177.955 10.846 44.086 47.482 77.206 92.642 82.686l0.522 0.052c106.731 11.808 214.928 11.808 322.412 11.808zM386.446 309.19h-51.837v-223.176c0-19.931 1.508-33.204 4.522-42.081 5.234-14.027 17.293-20.684 33.791-20.684 16.916 0 34.46 8.96 53.135 28.012l6.281 6.7v-30.985h51.837v282.215h-51.921v-215.765c-12.018-15.492-22.526-23.615-33.078-23.615-6.742 0-10.468 3.684-12.018 11.808-0.503 1.047-0.67 4.731-0.711 11.096v216.477zM581.861 405.202h-51.879v-378.269h51.879v27.342c17.293-20.684 34.544-31.027 53.345-31.027 20.308 0 34.586 11.096 41.328 31.781 3.308 10.342 4.857 26.337 5.192 47.483l0.084 9.379v111.588c0 26.589-1.508 45.807-5.276 56.862-6.742 21.439-20.266 31.823-41.328 31.823-16.707 0-32.786-8.207-47.775-24.034l-5.569-6.281v123.354zM801.269 312.875c-26.296 0-47.315-9.631-62.388-28.807-9.295-12.478-14.529-31.404-15.534-56.694l-0.21-9.798v-99.026c0-30.273 5.276-52.465 16.539-66.492 15.032-19.219 36.052-28.807 63.101-28.807s48.864 9.631 63.143 30.273c6.029 8.877 10.51 19.261 12.018 30.315 0 4.439 0.544 13.734 0.711 26.547l0.042 6.7v7.369h-53.345c0-20.684-0.753-31.739-1.508-34.712-3.015-14.027-10.51-20.684-23.281-20.684-15.953 0-24.872 11.305-26.17 33.414l-0.168 5.737v50.246h104.47v59.123c0 30.273-5.234 52.423-15.786 66.492-15.032 19.178-35.298 28.807-61.635 28.807zM327.156 405.202h-181.179v-53.177h60.882v-325.091h57.867v325.091h62.388v53.177zM607.445 266.314c13.818 0 21.229-10.552 22.402-32.241l0.168-6.155v-120.423c0-25.876-7.537-38.438-22.568-38.438-6.867 0-13.776 2.555-21.104 8.542l-4.439 4.020v172.135c8.249 8.877 17.293 12.562 25.542 12.562zM800.558 266.314c15.953 0 24.244-10.677 25.416-33.246l0.126-5.862v-25.918h-51.837v25.876c0 25.876 9.044 39.15 26.296 39.15zM499.961 844.855c26.296 0 47.315-10.342 61.593-29.562 11.305-14.781 16.539-36.931 16.539-67.204v-99.739c0-30.315-5.234-52.465-16.539-67.246-15.032-19.219-35.298-28.807-61.593-28.807-25.542 0-46.603 9.631-60.882 28.807-11.305 14.781-16.539 36.931-16.539 67.246v99.697c0 30.273 5.276 52.423 16.539 67.204 14.236 19.973 34.544 29.562 60.882 29.562zM673.561 841.17v-219.407c0.042-6.365 0.21-10.049 0.753-11.096 0.711-7.411 5.234-11.85 12.018-11.85 10.468 0 21.773 8.165 33.078 24.412v217.859h52.591v-285.147h-52.633v30.985c-21.020-22.904-41.328-34.754-60.086-34.754-17.293 0-28.557 6.7-33.833 21.48-3.015 8.123-4.522 22.15-4.522 42.081v225.396h52.591zM281.977 938.648l41.328-149.985 39.862 149.985h58.62l-69.926-227.573v-155.135h-58.537v155.135c-5.276 27.342-16.539 68-35.339 121.176-12.771 35.465-25.542 70.93-37.559 106.354h61.635zM500.672 797.54c-16.539 0-24.83-12.562-24.83-39.15v-119.712c0-26.589 7.537-39.904 24.83-39.904 16.497 0 24.788 13.315 24.788 39.904v119.712c0 25.835-7.537 39.15-24.788 39.15z" />
<glyph unicode="&#xe918;" glyph-name="close-thin" d="M935.777 916.597l44.106-44.106-423.777-423.777 467.883-467.883-44.106-44.106-467.883 467.883-467.883-467.883-44.106 44.106 467.883 467.883-423.777 423.777 44.106 44.106 423.777-423.777 423.777 423.777z" />
<glyph unicode="&#xe919;" glyph-name="arrow-sm" d="M5.9 440.882c-3.644-3.635-5.898-8.662-5.898-14.215s2.255-10.58 5.898-14.215l127.774-127.774c3.638-3.638 8.664-5.888 14.215-5.888 11.103 0 20.103 9 20.103 20.103 0 5.551-2.25 10.577-5.888 14.215l-113.599 113.558 113.599 113.558c3.638 3.638 5.888 8.664 5.888 14.215 0 11.103-9 20.103-20.103 20.103-5.551 0-10.577-2.25-14.215-5.888l-127.773-127.773zM1023.991 446.745h-1003.876v-40.155h1003.876v40.155z" />
<glyph unicode="&#xe91a;" glyph-name="chevron-down-2" d="M512 279.095l-431.307 456.664-80.679-76.129 511.986-542.116 511.986 542.116-80.679 76.185z" />
<glyph unicode="&#xe91b;" glyph-name="chevron-left-2" d="M364.435 426.667l456.664-431.307-76.129-80.679-542.116 511.986 542.116 511.986 76.185-80.679z" />
<glyph unicode="&#xe91c;" glyph-name="chevron-right-2" d="M659.565 426.667l-456.664 431.307 76.129 80.679 542.116-511.986-542.116-511.986-76.185 80.679z" />
<glyph unicode="&#xe91d;" glyph-name="chevron-up-2" d="M512 574.239l-431.307-456.664-80.679 76.129 511.986 542.116 511.986-542.116-80.679-76.185z" />
<glyph unicode="&#xe91e;" glyph-name="resize" d="M358.155-85.325v100.946h-183.888l139.217 139.175c75.817 75.817 304.162 303.607 346.273 346.443l0.085-0.085 263.203 263.203v-183.888h100.946v358.177h-358.134v-100.946h183.888l-748.778-748.778v183.888h-100.946v-358.134h358.134z" />
</font>
</defs>
</svg>
